<svg width="252" height="34" viewBox="0 0 252 34" fill="none" xmlns="http://www.w3.org/2000/svg">
<g clip-path="url(#clip0_17_65)">
<rect width="252" height="34" fill="#1A2426"/>
<mask id="mask0_17_65" style="mask-type:luminance" maskUnits="userSpaceOnUse" x="0" y="0" width="252" height="34">
<path fill-rule="evenodd" clip-rule="evenodd" d="M44.1201 0.433988L39.978 0.551985L40.0857 9.54336C40.1886 18.1526 40.1574 18.4921 39.3548 17.519C38.8933 16.9605 35.6469 12.9544 32.1397 8.6167L25.7634 0.730458L21.7845 0.610389L17.8057 0.48989V16.8623V33.2344H21.8815H25.9573L26.2292 31.4746C26.3788 30.5069 26.3934 26.2678 26.2619 22.0547L26.0221 14.3945L30.2651 19.5703C32.5983 22.417 36.0236 26.6636 37.8763 29.0072L41.245 33.2683L44.9949 33.1478L48.7446 33.0273L48.6199 16.7021C48.5517 7.72314 48.443 0.363184 48.3787 0.346621C48.3149 0.330059 46.3983 0.369394 44.1201 0.433988ZM124.013 0.523427C124.001 0.637294 123.946 8.04364 123.892 16.982L123.794 33.234H136.83L149.865 33.2344V29.9219V26.6094H141.337H132.81V13.5958V0.582236L128.423 0.449303C126.01 0.376014 124.026 0.40956 124.013 0.523427ZM246.352 0.433988L241.722 0.551985L238.376 5.73151L235.03 10.911L231.88 6.02757C230.147 3.34196 228.564 0.997948 228.361 0.818659C228.159 0.63937 225.757 0.546206 223.024 0.611627L218.054 0.730458L223.466 8.53265C226.443 12.8236 228.779 16.5501 228.659 16.8139C228.538 17.0772 225.899 20.88 222.794 25.2637L217.148 33.2344H222.127H227.104L230.79 27.6818L234.476 22.1296L238.099 27.6735L241.722 33.2174L246.717 33.2261C249.464 33.2306 251.712 33.1718 251.712 33.0952C251.712 33.0186 249.19 29.2817 246.108 24.7908C243.026 20.2995 240.504 16.5323 240.504 16.4189C240.504 16.3054 242.933 12.771 245.901 8.56451C248.869 4.35805 251.226 0.781387 251.139 0.616176C251.052 0.45138 248.898 0.369394 246.352 0.433988ZM0.234929 0.626942C0.198381 0.762755 0.198385 31.5686 0.234445 32.5098C0.259298 33.1445 0.807028 33.2344 4.64845 33.2344H9.03419V16.8789V0.523427H4.64845C2.23629 0.523427 0.250035 0.569802 0.234929 0.626942ZM53.8662 3.82225V7.12111L59.3484 7.23827L64.8306 7.35546L64.9592 20.2949L65.0879 33.2344H69.7104H74.333V20.1914V7.14843H79.4497H84.5664V3.83593V0.523427H69.2163H53.8662V3.82225ZM89.4395 16.8789V33.2344H102.907H116.374L116.064 31.3131C115.893 30.2568 115.754 28.7662 115.754 28.0006V26.6094H106.982H98.2109V23.2969V19.9844H105.786H113.36L113.217 16.9824L113.074 13.9805L105.642 13.8662L98.2109 13.7519V10.4502V7.14843H106.739H115.267V3.83593V0.523427H102.353H89.4395V16.8789ZM155.226 16.8789V33.2344H168.139H181.053V29.9219V26.6094H172.579H164.105L164.078 14.084C164.064 7.1948 164.04 1.32588 164.024 1.04101C164.005 0.667107 162.78 0.523427 159.611 0.523427H155.226V16.8789ZM186.747 2.48982C186.798 3.57176 186.852 10.9321 186.869 18.8457L186.9 33.2344H200.322H213.743L213.601 30.0254L213.459 26.8164L204.565 26.7034L195.672 26.5907V23.272V19.9537L203.003 20.0196C207.035 20.0556 210.385 20.0163 210.446 19.9314C210.507 19.8465 210.48 18.4262 210.385 16.7754L210.211 13.7734H202.942H195.672V10.4609V7.14843H204.171C208.846 7.14843 212.783 6.99315 212.921 6.80351C213.059 6.61387 213.04 5.12324 212.879 3.49101L212.586 0.523427L199.621 0.523022L186.657 0.522593L186.747 2.48982Z" fill="url(#paint0_linear_17_65)"/>
</mask>
<g mask="url(#mask0_17_65)">
<path fill-rule="evenodd" clip-rule="evenodd" d="M44.1201 0.433988L39.978 0.551985L40.0857 9.54336C40.1886 18.1526 40.1574 18.4921 39.3548 17.519C38.8933 16.9605 35.6469 12.9544 32.1397 8.6167L25.7634 0.730458L21.7845 0.610389L17.8057 0.48989V16.8623V33.2344H21.8815H25.9573L26.2292 31.4746C26.3788 30.5069 26.3934 26.2678 26.2619 22.0547L26.0221 14.3945L30.2651 19.5703C32.5983 22.417 36.0236 26.6636 37.8763 29.0072L41.245 33.2683L44.9949 33.1478L48.7446 33.0273L48.6199 16.7021C48.5517 7.72314 48.443 0.363184 48.3787 0.346621C48.3149 0.330059 46.3983 0.369394 44.1201 0.433988ZM124.013 0.523427C124.001 0.637294 123.946 8.04364 123.892 16.982L123.794 33.234H136.83L149.865 33.2344V29.9219V26.6094H141.337H132.81V13.5958V0.582236L128.423 0.449303C126.01 0.376014 124.026 0.40956 124.013 0.523427ZM246.352 0.433988L241.722 0.551985L238.376 5.73151L235.03 10.911L231.88 6.02757C230.147 3.34196 228.564 0.997948 228.361 0.818659C228.159 0.63937 225.757 0.546206 223.024 0.611627L218.054 0.730458L223.466 8.53265C226.443 12.8236 228.779 16.5501 228.659 16.8139C228.538 17.0772 225.899 20.88 222.794 25.2637L217.148 33.2344H222.127H227.104L230.79 27.6818L234.476 22.1296L238.099 27.6735L241.722 33.2174L246.717 33.2261C249.464 33.2306 251.712 33.1718 251.712 33.0952C251.712 33.0186 249.19 29.2817 246.108 24.7908C243.026 20.2995 240.504 16.5323 240.504 16.4189C240.504 16.3054 242.933 12.771 245.901 8.56451C248.869 4.35805 251.226 0.781387 251.139 0.616176C251.052 0.45138 248.898 0.369394 246.352 0.433988ZM0.234929 0.626942C0.198381 0.762755 0.198385 31.5686 0.234445 32.5098C0.259298 33.1445 0.807028 33.2344 4.64845 33.2344H9.03419V16.8789V0.523427H4.64845C2.23629 0.523427 0.250035 0.569802 0.234929 0.626942ZM53.8662 3.82225V7.12111L59.3484 7.23827L64.8306 7.35546L64.9592 20.2949L65.0879 33.2344H69.7104H74.333V20.1914V7.14843H79.4497H84.5664V3.83593V0.523427H69.2163H53.8662V3.82225ZM89.4395 16.8789V33.2344H102.907H116.374L116.064 31.3131C115.893 30.2568 115.754 28.7662 115.754 28.0006V26.6094H106.982H98.2109V23.2969V19.9844H105.786H113.36L113.217 16.9824L113.074 13.9805L105.642 13.8662L98.2109 13.7519V10.4502V7.14843H106.739H115.267V3.83593V0.523427H102.353H89.4395V16.8789ZM155.226 16.8789V33.2344H168.139H181.053V29.9219V26.6094H172.579H164.105L164.078 14.084C164.064 7.1948 164.04 1.32588 164.024 1.04101C164.005 0.667107 162.78 0.523427 159.611 0.523427H155.226V16.8789ZM186.747 2.48982C186.798 3.57176 186.852 10.9321 186.869 18.8457L186.9 33.2344H200.322H213.743L213.601 30.0254L213.459 26.8164L204.565 26.7034L195.672 26.5907V23.272V19.9537L203.003 20.0196C207.035 20.0556 210.385 20.0163 210.446 19.9314C210.507 19.8465 210.48 18.4262 210.385 16.7754L210.211 13.7734H202.942H195.672V10.4609V7.14843H204.171C208.846 7.14843 212.783 6.99315 212.921 6.80351C213.059 6.61387 213.04 5.12324 212.879 3.49101L212.586 0.523427L199.621 0.523022L186.657 0.522593L186.747 2.48982Z" fill="url(#paint1_linear_17_65)"/>
</g>
</g>
<defs>
<linearGradient id="paint0_linear_17_65" x1="217.922" y1="114.03" x2="37.2857" y2="-66.224" gradientUnits="userSpaceOnUse">
<stop stop-color="#3FE0D0"/>
<stop offset="1" stop-color="#00C8FF"/>
</linearGradient>
<linearGradient id="paint1_linear_17_65" x1="217.922" y1="114.03" x2="37.2857" y2="-66.224" gradientUnits="userSpaceOnUse">
<stop stop-color="#3FE0D0"/>
<stop offset="1" stop-color="#00C8FF"/>
</linearGradient>
<clipPath id="clip0_17_65">
<rect width="252" height="34" fill="white"/>
</clipPath>
</defs>
</svg>
